<?xml version="1.0" encoding="utf-8"?>
<!-- Generator: Adobe Illustrator 25.4.1, SVG Export Plug-In . SVG Version: 6.00 Build 0)  -->
<svg version="1.1" id="Layer_1" xmlns="http://www.w3.org/2000/svg" xmlns:xlink="http://www.w3.org/1999/xlink" x="0px" y="0px"
	 viewBox="0 0 966.28 602.89" style="enable-background:new 0 0 966.28 602.89;" xml:space="preserve">
<style type="text/css">
	.st0{fill:#1D1D1B;}
</style>
<g>
	<path class="st0" d="M267.28,220.74c25.82,0,51.65,0.09,77.47-0.09c4.04-0.03,4.91,0.94,4.42,4.96
		c-4.07,33.17-7.74,66.39-11.87,99.55c-3.82,30.69-8.03,61.34-12.15,91.99c-0.69,5.11-1.55,10.25-3.52,15.03
		c-1.35,3.28-0.45,5.23,2.23,7.18c15.83,11.57,35.86,2.64,38.11-17.07c4.77-41.64,9.47-83.29,14.26-124.93
		c2.83-24.6,5.85-49.18,8.64-73.79c0.3-2.68,1.08-3.72,3.85-3.7c12.66,0.11,25.32,0.09,37.99,0.03c2.3-0.01,3.17,0.42,2.85,3.08
		c-3.42,28.57-6.7,57.15-10.01,85.74c-3.54,30.55-6.85,61.14-10.69,91.65c-1.8,14.31-1.68,28.99-6.57,42.79
		c-15.52,43.78-66.87,59.57-104.17,31.96c-3.3-2.44-5.28-2.44-8.56-0.2c-13.7,9.37-29.11,13.75-45.6,13.85
		c-26.49,0.16-53.01,0.76-79.46-0.3c-51.98-2.09-93.6-39.12-102.88-90.28c-3.05-16.84-0.64-33.46,1.9-50.11
		c5.59-36.64,11.04-73.31,16.53-109.97c4.35-29.08,8.72-58.15,12.97-87.24c0.36-2.48,1.19-3.42,3.71-3.41
		c12.83,0.08,25.66,0.11,38.49-0.05c2.76-0.03,3.01,1.03,2.68,3.24c-4.44,29.43-8.84,58.86-13.25,88.29
		c-4.85,32.38-9.72,64.76-14.52,97.15c-1.87,12.65-3.83,25.29-5.33,37.99c-3.94,33.47,22.15,66.1,55.73,69.8
		c15.77,1.74,31.63,0.67,47.44,0.71c13.64,0.04,27.33,0.97,40.92-0.63c16.93-1.99,29.56-13.98,31.97-30.81
		c5.51-38.51,11-77.02,15.22-115.7c1.03-9.42,2.1-18.84,3.4-28.23c0.46-3.3,0.07-4.59-3.81-4.57c-31.49,0.17-62.98,0.16-94.47,0.03
		c-3.49-0.01-4.7,0.78-5.24,4.49c-4.74,32.57-9.72,65.1-14.76,97.63c-0.59,3.83-0.33,5.44,4.39,5.38
		c23.32-0.28,46.65-0.05,69.97-0.2c3.53-0.02,4.89,0.6,4.79,4.56c-0.3,11.99-0.13,23.99-0.08,35.98c0.01,2.18,0.02,3.82-3.01,3.81
		c-28.49-0.09-57.01,0.87-85.44-0.35c-24.71-1.07-39.37-22.12-35.48-47.91c5.63-37.31,11.27-74.61,16.89-111.91
		c3.34-22.19,18.53-35.36,41.08-35.41c24.32-0.05,48.65-0.01,72.97-0.01C267.28,220.73,267.28,220.73,267.28,220.74z"/>
	<path class="st0" d="M711.79,115.3c-1.34,10.47-2.64,20.96-4.03,31.44c-5.85,43.84-11.71,87.68-17.61,131.52
		c-2.14,15.93-13.04,25.57-29.07,25.79c-5.16,0.07-10.34-0.19-15.49,0.05c-3.17,0.15-4.06-0.87-3.61-3.95
		c1.59-11.03,3.03-22.08,4.51-33.13c3.17-23.74,6.34-47.48,9.49-71.23c0.1-0.79,0.01-1.6,0.01-2.95
		c-14.3,7.64-27.94,15.62-42.2,22.29c-8.24,3.85-11.14,9.1-12.09,17.95c-3.91,36.22-8.83,72.33-13.12,108.51
		c-2.57,21.63,4.92,38.76,23.68,50.61c18.84,11.89,37.57,23.96,56.34,35.97c1.33,0.85,3.08,1.35,2.8,3.63
		c-2.08,16.78-4.11,33.57-6.25,51.13c-9.61-6.09-18.58-11.72-27.49-17.44c-19.46-12.49-39.11-24.69-58.27-37.62
		c-19.54-13.19-30.62-32.15-35.37-55.09c-2.9-13.98-1.23-27.81,0.52-41.69c2.89-22.94,5.64-45.89,8.48-68.83
		c2.65-21.46,5.42-42.9,7.93-64.38c0.35-3.03,2.39-3.77,4.35-4.83c26.06-14.03,52.15-28.02,78.23-42.02
		c21.54-11.56,43.08-23.1,64.62-34.65C709.13,115.83,710.03,114.98,711.79,115.3z"/>
	<path class="st0" d="M756.15,113.56c8.6,5.71,16.59,11.02,24.58,16.33c31.44,20.91,62.86,41.85,94.37,62.66
		c2.67,1.76,3.7,3.26,3.25,6.76c-4.34,33.79-8.16,67.65-12.6,101.43c-3.08,23.38-4.05,47.14-9.74,70.07
		c-7.74,31.2-26.24,55.21-53.94,71.18c-27.52,15.88-57.2,27.56-85.72,41.53c-3.59,1.76-3.05-0.15-2.78-2.39
		c2.23-18.17,4.44-36.33,6.68-54.5c3.56-28.9,7.24-57.78,10.65-86.69c2.09-17.77,13.06-27.87,30.88-27.86c4.5,0,9,0.14,13.5-0.04
		c3.1-0.13,4.39,0.37,3.89,4.09c-2.78,20.94-5.28,41.91-7.84,62.88c-1.31,10.7-2.55,21.4-3.9,32.76
		c19.73-7.61,34.36-19.58,42.22-38.99c4.46-11.01,4.73-22.76,6.21-34.27c4.37-34.14,8-68.39,12.96-102.44
		c1.62-11.12-0.14-17.65-10.5-23.86c-22.35-13.39-43.59-28.65-65.32-43.07c-1.91-1.27-3.45-2.29-3.1-5.01
		C752.01,147.55,754.01,130.96,756.15,113.56z"/>
	<path class="st0" d="M364.35,191.75c-33.15,0-66.31-0.09-99.46,0.11c-4.41,0.03-5.31-1.18-4.72-5.34
		c1.56-11.02,2.92-22.09,3.93-33.18c0.41-4.54,1.87-6,6.63-5.99c62.31,0.18,124.62,0.12,186.92,0.11c2.5,0,5.01,0.07,7.49-0.17
		c7.57-0.74,12.14-5.14,13.04-12.68c1.07-8.92,2.06-17.85,2.8-26.8c0.23-2.75,1.02-3.74,3.82-3.72c12.49,0.11,24.99,0.04,37.48,0.02
		c1.92,0,3.71-0.19,3.36,2.78c-1.45,12.38-1.98,24.93-4.29,37.15c-5.49,28.99-28.92,47.7-58.54,47.73
		c-16.49,0.01-32.99-0.01-49.48-0.01C397,191.75,380.67,191.75,364.35,191.75z"/>
	<path class="st0" d="M455.52,489.83c-6-0.01-12-0.12-17.99,0.04c-3.12,0.08-4.37,0.11-3.79-4.12c3.03-22.05,5.45-44.19,8.12-66.29
		c3.61-29.87,7.31-59.73,10.9-89.61c3.83-31.86,7.58-63.72,11.38-95.58c0.18-1.48,0.52-2.94,0.73-4.42
		c1.43-9.93,1.42-9.94,11.59-9.94c10.16,0,20.32,0.1,30.48-0.08c2.88-0.05,3.52,0.61,3.17,3.54c-3.22,26.23-6.21,52.5-9.38,78.74
		c-3.17,26.22-6.47,52.43-9.69,78.64c-3.58,29.21-7.14,58.42-10.7,87.63c-0.7,5.78-1.61,11.55-1.94,17.35
		c-0.2,3.58-1.66,4.3-4.91,4.17C467.52,489.66,461.51,489.84,455.52,489.83z"/>
	<path class="st0" d="M198.88,147.5c6.15,0,12.32,0.22,18.46-0.08c3.5-0.17,3.72,0.97,3.22,4.02c-2,12.28-3.79,24.59-5.45,36.92
		c-0.33,2.44-1.06,3.44-3.6,3.43c-12.64-0.08-25.28-0.07-37.93,0.03c-2.83,0.02-3.29-1.07-2.91-3.64
		c1.86-12.63,3.66-25.27,5.26-37.93c0.32-2.5,1.35-2.85,3.49-2.81c6.48,0.12,12.97,0.04,19.46,0.04
		C198.88,147.48,198.88,147.49,198.88,147.5z"/>
</g>
</svg>
