<?xml version="1.0" encoding="utf-8"?>
<!-- Generator: Adobe Illustrator 25.4.1, SVG Export Plug-In . SVG Version: 6.00 Build 0)  -->
<svg version="1.1" id="Layer_1" xmlns="http://www.w3.org/2000/svg" xmlns:xlink="http://www.w3.org/1999/xlink" x="0px" y="0px"
	 viewBox="0 0 966.28 602.89" style="enable-background:new 0 0 966.28 602.89;" xml:space="preserve">
<style type="text/css">
	.st0{fill:#1D1D1B;}
</style>
<path class="st0" d="M469.05,119.98c-1.34,10.47-2.64,20.96-4.03,31.44c-5.85,43.84-11.71,87.68-17.61,131.52
	c-2.14,15.93-13.04,25.57-29.07,25.79c-5.16,0.07-10.34-0.19-15.49,0.05c-3.17,0.15-4.06-0.87-3.61-3.95
	c1.59-11.03,3.03-22.08,4.51-33.13c3.17-23.74,6.34-47.48,9.49-71.23c0.1-0.79,0.01-1.6,0.01-2.95
	c-14.3,7.64-27.94,15.62-42.2,22.29c-8.24,3.85-11.14,9.1-12.09,17.95c-3.91,36.22-8.83,72.33-13.12,108.51
	c-2.57,21.63,4.92,38.76,23.68,50.61c18.84,11.89,37.57,23.96,56.34,35.97c1.33,0.85,3.08,1.35,2.8,3.63
	c-2.08,16.78-4.11,33.57-6.25,51.13c-9.61-6.09-18.58-11.72-27.49-17.44c-19.46-12.49-39.11-24.69-58.27-37.62
	c-19.54-13.19-30.62-32.15-35.37-55.09c-2.9-13.98-1.23-27.81,0.52-41.69c2.89-22.94,5.64-45.89,8.48-68.83
	c2.65-21.46,5.42-42.9,7.93-64.38c0.35-3.03,2.39-3.77,4.35-4.83c26.06-14.03,52.15-28.02,78.23-42.02
	c21.54-11.56,43.08-23.1,64.62-34.65C466.4,120.51,467.3,119.66,469.05,119.98z"/>
<path class="st0" d="M513.42,118.24c8.6,5.71,16.59,11.02,24.58,16.33c31.44,20.91,62.86,41.85,94.37,62.66
	c2.67,1.76,3.7,3.26,3.25,6.76c-4.34,33.79-8.16,67.65-12.6,101.43c-3.08,23.38-4.05,47.14-9.74,70.07
	c-7.74,31.2-26.24,55.21-53.94,71.18c-27.52,15.88-57.2,27.56-85.72,41.53c-3.59,1.76-3.05-0.15-2.78-2.39
	c2.23-18.17,4.44-36.33,6.68-54.5c3.56-28.9,7.24-57.78,10.65-86.69c2.09-17.77,13.06-27.87,30.88-27.86c4.5,0,9,0.14,13.5-0.04
	c3.1-0.13,4.39,0.37,3.89,4.09c-2.78,20.94-5.28,41.91-7.84,62.88c-1.31,10.7-2.55,21.4-3.9,32.76
	c19.73-7.61,34.36-19.58,42.22-38.99c4.46-11.01,4.73-22.76,6.21-34.27c4.37-34.14,8-68.39,12.96-102.44
	c1.62-11.12-0.14-17.65-10.5-23.86c-22.35-13.39-43.59-28.65-65.32-43.07c-1.91-1.27-3.45-2.29-3.1-5.01
	C509.27,152.23,511.28,135.64,513.42,118.24z"/>
</svg>
